<svg width="174" height="57" viewBox="0 0 174 57" fill="none" xmlns="http://www.w3.org/2000/svg">
<path d="M0.744 30.36C0.744 29.32 0.928 28.296 1.296 27.288C1.68 26.28 2.232 25.368 2.952 24.552C3.672 23.736 4.552 23.088 5.592 22.608C6.632 22.112 7.816 21.864 9.144 21.864C10.696 21.864 12.048 22.208 13.2 22.896C14.352 23.584 15.208 24.48 15.768 25.584L13.224 27.336C12.936 26.696 12.56 26.192 12.096 25.824C11.632 25.456 11.128 25.192 10.584 25.032C10.056 24.872 9.544 24.792 9.048 24.792C8.216 24.792 7.488 24.96 6.864 25.296C6.256 25.632 5.744 26.072 5.328 26.616C4.912 27.16 4.6 27.768 4.392 28.44C4.2 29.112 4.104 29.784 4.104 30.456C4.104 31.464 4.312 32.408 4.728 33.288C5.144 34.152 5.728 34.856 6.48 35.4C7.232 35.944 8.104 36.216 9.096 36.216C9.608 36.216 10.136 36.128 10.68 35.952C11.24 35.776 11.752 35.496 12.216 35.112C12.68 34.728 13.04 34.232 13.296 33.624L16.008 35.184C15.656 36.032 15.104 36.752 14.352 37.344C13.6 37.92 12.752 38.368 11.808 38.688C10.864 38.992 9.928 39.144 9 39.144C7.784 39.144 6.672 38.896 5.664 38.4C4.672 37.888 3.808 37.216 3.072 36.384C2.336 35.536 1.76 34.592 1.344 33.552C0.944 32.496 0.744 31.432 0.744 30.36ZM25.4051 29.208C24.4291 29.208 23.5571 29.4 22.7891 29.784C22.0211 30.152 21.4691 30.688 21.1331 31.392V39H17.9171V26.424H20.8691V29.112C21.3011 28.248 21.8611 27.568 22.5491 27.072C23.2531 26.576 23.9891 26.304 24.7571 26.256C25.0931 26.256 25.3091 26.264 25.4051 26.28V29.208ZM32.8663 39.24C31.5063 39.24 30.3303 38.944 29.3383 38.352C28.3623 37.76 27.6023 36.976 27.0583 36C26.5143 35.008 26.2423 33.936 26.2423 32.784C26.2423 31.6 26.5063 30.512 27.0343 29.52C27.5783 28.512 28.3463 27.712 29.3383 27.12C30.3303 26.512 31.5143 26.208 32.8903 26.208C34.2663 26.208 35.4423 26.512 36.4183 27.12C37.3943 27.712 38.1383 28.504 38.6503 29.496C39.1783 30.472 39.4423 31.528 39.4423 32.664C39.4423 33.08 39.4183 33.44 39.3703 33.744H29.6503C29.7303 34.72 30.0903 35.488 30.7303 36.048C31.3863 36.608 32.1383 36.888 32.9863 36.888C33.6263 36.888 34.2263 36.736 34.7863 36.432C35.3623 36.112 35.7543 35.696 35.9623 35.184L38.7223 35.952C38.2583 36.912 37.5143 37.704 36.4903 38.328C35.4663 38.936 34.2583 39.24 32.8663 39.24ZM29.5783 31.704H36.1543C36.0583 30.76 35.6983 30 35.0743 29.424C34.4663 28.832 33.7223 28.536 32.8423 28.536C31.9783 28.536 31.2343 28.832 30.6103 29.424C30.0023 30 29.6583 30.76 29.5783 31.704ZM40.5375 35.28C40.5375 34.464 40.7615 33.752 41.2095 33.144C41.6735 32.52 42.3135 32.04 43.1295 31.704C43.9455 31.368 44.8815 31.2 45.9375 31.2C46.4655 31.2 47.0015 31.248 47.5455 31.344C48.0895 31.424 48.5615 31.544 48.9615 31.704V31.032C48.9615 30.232 48.7215 29.616 48.2415 29.184C47.7775 28.752 47.0815 28.536 46.1535 28.536C45.4655 28.536 44.8095 28.656 44.1855 28.896C43.5615 29.136 42.9055 29.488 42.2175 29.952L41.1855 27.84C42.0175 27.296 42.8655 26.888 43.7295 26.616C44.6095 26.344 45.5295 26.208 46.4895 26.208C48.2815 26.208 49.6735 26.656 50.6655 27.552C51.6735 28.448 52.1775 29.728 52.1775 31.392V35.4C52.1775 35.752 52.2335 36 52.3455 36.144C52.4575 36.272 52.6575 36.352 52.9455 36.384V39C52.6575 39.064 52.3935 39.104 52.1535 39.12C51.9295 39.152 51.7375 39.168 51.5775 39.168C50.9375 39.168 50.4495 39.024 50.1135 38.736C49.7775 38.448 49.5775 38.096 49.5135 37.68L49.4415 37.032C48.8815 37.752 48.1935 38.304 47.3775 38.688C46.5775 39.056 45.7535 39.24 44.9055 39.24C44.0575 39.24 43.3055 39.072 42.6495 38.736C41.9935 38.384 41.4735 37.912 41.0895 37.32C40.7215 36.712 40.5375 36.032 40.5375 35.28ZM48.3615 35.928C48.7615 35.544 48.9615 35.176 48.9615 34.824V33.552C48.1295 33.216 47.2895 33.048 46.4415 33.048C45.5935 33.048 44.9055 33.232 44.3775 33.6C43.8495 33.952 43.5855 34.424 43.5855 35.016C43.5855 35.496 43.7775 35.928 44.1615 36.312C44.5455 36.696 45.0975 36.888 45.8175 36.888C46.2975 36.888 46.7615 36.8 47.2095 36.624C47.6735 36.448 48.0575 36.216 48.3615 35.928ZM62.6016 38.352C62.1696 38.544 61.6336 38.736 60.9936 38.928C60.3696 39.12 59.7216 39.216 59.0496 39.216C58.4576 39.216 57.9136 39.112 57.4176 38.904C56.9216 38.696 56.5216 38.368 56.2176 37.92C55.9296 37.456 55.7856 36.856 55.7856 36.12V28.896H54.1296V26.424H55.7856V22.344H59.0016V26.424H61.6416V28.896H59.0016V35.04C59.0016 35.472 59.1136 35.784 59.3376 35.976C59.5776 36.168 59.8656 36.264 60.2016 36.264C60.5376 36.264 60.8656 36.208 61.1856 36.096C61.5056 35.984 61.7616 35.888 61.9536 35.808L62.6016 38.352ZM69.9444 39.24C68.5844 39.24 67.4084 38.944 66.4164 38.352C65.4404 37.76 64.6804 36.976 64.1364 36C63.5924 35.008 63.3204 33.936 63.3204 32.784C63.3204 31.6 63.5844 30.512 64.1124 29.52C64.6564 28.512 65.4244 27.712 66.4164 27.12C67.4084 26.512 68.5924 26.208 69.9684 26.208C71.3444 26.208 72.5204 26.512 73.4964 27.12C74.4724 27.712 75.2164 28.504 75.7284 29.496C76.2564 30.472 76.5204 31.528 76.5204 32.664C76.5204 33.08 76.4964 33.44 76.4484 33.744H66.7284C66.8084 34.72 67.1684 35.488 67.8084 36.048C68.4644 36.608 69.2164 36.888 70.0644 36.888C70.7044 36.888 71.3044 36.736 71.8644 36.432C72.4404 36.112 72.8324 35.696 73.0404 35.184L75.8004 35.952C75.3364 36.912 74.5924 37.704 73.5684 38.328C72.5444 38.936 71.3364 39.24 69.9444 39.24ZM66.6564 31.704H73.2324C73.1364 30.76 72.7764 30 72.1524 29.424C71.5444 28.832 70.8004 28.536 69.9204 28.536C69.0564 28.536 68.3124 28.832 67.6884 29.424C67.0804 30 66.7364 30.76 66.6564 31.704Z" fill="black"/>
<g filter="url(#filter0_d)">
<path d="M73.3409 28.5161L76.6189 27.7782L86.4724 43.0263L83.1477 43.7748L80.6693 39.9785L74.8627 41.2857L74.2738 45.7726L70.949 46.5211L73.3409 28.5161ZM79.5727 37.8391L75.7337 31.4954L74.8899 38.8933L79.5727 37.8391ZM93.3913 41.7147C92.0645 42.0134 90.8505 41.9751 89.7491 41.5998C88.6478 41.2246 87.7229 40.6128 86.9743 39.7645C86.2257 38.9162 85.7249 37.9301 85.4719 36.8062C85.2153 35.6667 85.2357 34.5551 85.5329 33.4714C85.8458 32.3841 86.4211 31.4428 87.2588 30.6474C88.0966 29.8519 89.1789 29.3049 90.5057 29.0062C91.8481 28.704 93.0525 28.7362 94.1191 29.1029C95.2013 29.4661 96.082 30.0633 96.7611 30.8944L93.9047 32.5215C93.1475 31.7079 92.207 31.4276 91.0831 31.6806C90.4744 31.8177 89.9632 32.0968 89.5496 32.5179C89.1325 32.9234 88.8467 33.4388 88.6922 34.064C88.5342 34.6735 88.5378 35.3452 88.703 36.0788C88.8647 36.7968 89.1492 37.4052 89.5567 37.9039C89.9763 38.3834 90.4649 38.7326 91.0226 38.9515C91.5767 39.1547 92.1504 39.1896 92.7436 39.0561C93.3055 38.9295 93.7907 38.6809 94.1993 38.3101C94.6199 37.9202 94.8764 37.4934 94.9689 37.0298L98.247 37.2759C98.0328 38.2917 97.5026 39.2147 96.6563 40.0448C95.822 40.8559 94.7337 41.4125 93.3913 41.7147ZM106.493 38.7651C105.166 39.0638 103.952 39.0255 102.851 38.6502C101.75 38.275 100.825 37.6632 100.076 36.8149C99.3275 35.9666 98.8267 34.9805 98.5736 33.8566C98.3171 32.7171 98.3375 31.6055 98.6347 30.5218C98.9475 29.4345 99.5228 28.4932 100.361 27.6978C101.198 26.9024 102.281 26.3553 103.607 26.0566C104.95 25.7544 106.154 25.7866 107.221 26.1533C108.303 26.5165 109.184 27.1137 109.863 27.9448L107.006 29.5719C106.249 28.7583 105.309 28.478 104.185 28.7311C103.576 28.8681 103.065 29.1472 102.651 29.5683C102.234 29.9738 101.948 30.4892 101.794 31.1144C101.636 31.724 101.64 32.3956 101.805 33.1292C101.966 33.8472 102.251 34.4556 102.658 34.9543C103.078 35.4338 103.567 35.783 104.124 36.0019C104.679 36.2051 105.252 36.24 105.845 36.1065C106.407 35.98 106.893 35.7313 107.301 35.3605C107.722 34.9706 107.978 34.5439 108.071 34.0802L111.349 34.3263C111.135 35.3421 110.604 36.2651 109.758 37.0953C108.924 37.9063 107.835 38.4629 106.493 38.7651ZM119.548 35.8261C118.206 36.1283 116.986 36.0996 115.888 35.7399C114.802 35.3611 113.893 34.7458 113.16 33.894C112.427 33.0422 111.934 32.0543 111.681 30.9305C111.424 29.791 111.445 28.6794 111.742 27.5956C112.055 26.5084 112.622 25.5688 113.444 24.7769C114.278 23.9658 115.359 23.411 116.686 23.1123C118.013 22.8136 119.219 22.8536 120.305 23.2324C121.402 23.5921 122.318 24.1978 123.051 25.0496C123.784 25.9015 124.278 26.8971 124.535 28.0366C124.788 29.1605 124.766 30.2643 124.469 31.348C124.171 32.4318 123.606 33.3791 122.771 34.1902C121.949 34.9821 120.875 35.5274 119.548 35.8261ZM114.912 30.203C115.073 30.9211 115.358 31.5294 115.766 32.0281C116.169 32.5112 116.649 32.8543 117.203 33.0576C117.757 33.2608 118.338 33.2939 118.947 33.1569C119.54 33.0233 120.044 32.746 120.457 32.3249C120.867 31.8882 121.151 31.365 121.309 30.7554C121.479 30.1267 121.484 29.4534 121.322 28.7353C121.164 28.0329 120.875 27.4419 120.455 26.9624C120.048 26.4637 119.567 26.1127 119.013 25.9095C118.455 25.6906 117.88 25.6479 117.287 25.7815C116.678 25.9185 116.169 26.2054 115.758 26.6421C115.345 27.0633 115.061 27.5864 114.906 28.2116C114.748 28.8212 114.75 29.485 114.912 30.203ZM126.878 29.1081L125.149 21.4283L128.287 20.722L129.863 27.7228C130.288 29.6115 131.18 30.403 132.538 30.0973C133.146 29.9602 133.691 29.6489 134.172 29.1634C134.666 28.6588 135.007 27.9914 135.198 27.1613L133.485 19.5518L136.622 18.8454L138.594 27.6023C138.671 27.9457 138.78 28.1753 138.921 28.2912C139.058 28.3915 139.271 28.4256 139.559 28.3936L140.133 30.9457C139.835 31.0784 139.579 31.1772 139.364 31.242C139.164 31.3033 138.979 31.3533 138.807 31.3919C138.245 31.5184 137.757 31.4972 137.341 31.3283C136.938 31.1402 136.654 30.8269 136.49 30.3883L136.198 29.4207C135.842 30.3866 135.282 31.1769 134.518 31.7917C133.755 32.4064 132.858 32.8297 131.827 33.0616C130.563 33.3463 129.512 33.1566 128.673 32.4925C127.832 31.8128 127.233 30.6846 126.878 29.1081ZM153.905 27.8454L150.767 28.5517L149.218 21.668C148.996 20.6846 148.663 20.0052 148.217 19.6299C147.772 19.2545 147.245 19.1354 146.636 19.2724C146.215 19.3673 145.81 19.5732 145.422 19.8901C145.05 20.2035 144.736 20.594 144.481 21.0616C144.222 21.5135 144.07 22.0068 144.027 22.5414L145.64 29.7061L142.502 30.4124L139.74 18.1435L142.573 17.5057L143.084 19.7769C143.365 18.9101 143.885 18.1615 144.645 17.5312C145.402 16.8853 146.319 16.441 147.396 16.1986C148.161 16.0264 148.817 16.0263 149.364 16.1983C149.907 16.3548 150.365 16.6372 150.735 17.0458C151.103 17.4387 151.398 17.9134 151.622 18.4699C151.861 19.0228 152.048 19.5959 152.181 20.189L153.905 27.8454ZM163.774 24.9593C163.395 25.2415 162.914 25.5466 162.332 25.8744C161.765 26.1988 161.154 26.4348 160.498 26.5824C159.921 26.7124 159.367 26.7304 158.838 26.6364C158.308 26.5424 157.846 26.3103 157.451 25.94C157.068 25.5506 156.796 24.9969 156.634 24.2788L155.047 17.2312L153.432 17.5949L152.889 15.1833L154.505 14.8196L153.608 10.8392L156.746 10.1329L157.642 14.1133L160.218 13.5334L160.761 15.9451L158.185 16.5249L159.534 22.5189C159.629 22.9403 159.807 23.2201 160.068 23.3582C160.344 23.4928 160.646 23.5232 160.974 23.4494C161.302 23.3756 161.609 23.249 161.897 23.0694C162.185 22.8899 162.413 22.74 162.583 22.6198L163.774 24.9593Z" fill="#FF0000"/>
</g>
<defs>
<filter id="filter0_d" x="60.949" y="0.132879" width="112.825" height="56.3882" filterUnits="userSpaceOnUse" color-interpolation-filters="sRGB">
<feFlood flood-opacity="0" result="BackgroundImageFix"/>
<feColorMatrix in="SourceAlpha" type="matrix" values="0 0 0 0 0 0 0 0 0 0 0 0 0 0 0 0 0 0 127 0"/>
<feOffset/>
<feGaussianBlur stdDeviation="5"/>
<feColorMatrix type="matrix" values="0 0 0 0 1 0 0 0 0 0 0 0 0 0 0 0 0 0 0.36 0"/>
<feBlend mode="normal" in2="BackgroundImageFix" result="effect1_dropShadow"/>
<feBlend mode="normal" in="SourceGraphic" in2="effect1_dropShadow" result="shape"/>
</filter>
</defs>
</svg>
