<svg width="16" height="14" viewBox="0 0 16 14" fill="none" xmlns="http://www.w3.org/2000/svg">
<path fill-rule="evenodd" clip-rule="evenodd" d="M14.002 1H2.00195C1.73674 1 1.48238 1.10536 1.29485 1.29289C1.10731 1.48043 1.00195 1.73478 1.00195 2V12C1.00195 12.2652 1.10731 12.5196 1.29485 12.7071C1.48238 12.8946 1.73674 13 2.00195 13H14.002C14.2672 13 14.5215 12.8946 14.7091 12.7071C14.8966 12.5196 15.002 12.2652 15.002 12V2C15.002 1.73478 14.8966 1.48043 14.7091 1.29289C14.5215 1.10536 14.2672 1 14.002 1V1ZM2.00195 0C1.47152 0 0.962812 0.210714 0.58774 0.585786C0.212667 0.960859 0.00195313 1.46957 0.00195312 2V12C0.00195313 12.5304 0.212667 13.0391 0.58774 13.4142C0.962812 13.7893 1.47152 14 2.00195 14H14.002C14.2646 14 14.5247 13.9483 14.7673 13.8478C15.01 13.7472 15.2305 13.5999 15.4162 13.4142C15.6019 13.2285 15.7492 13.008 15.8497 12.7654C15.9502 12.5227 16.002 12.2626 16.002 12V2C16.002 1.46957 15.7912 0.960859 15.4162 0.585786C15.0411 0.210714 14.5324 0 14.002 0H2.00195V0Z" fill="black"/>
<path d="M10.648 6.64601C10.7222 6.57195 10.8179 6.52312 10.9215 6.50643C11.025 6.48974 11.1312 6.50604 11.225 6.55301L15.002 8.50002V13H1.00195V11L3.64795 8.64601C3.72969 8.56458 3.83707 8.51392 3.95189 8.50262C4.06672 8.49132 4.18191 8.52007 4.27795 8.58401L6.93795 10.357L10.648 6.64701V6.64601Z" fill="black"/>
<path fill-rule="evenodd" clip-rule="evenodd" d="M4.50195 6C4.69894 6 4.89399 5.9612 5.07598 5.88582C5.25797 5.81044 5.42333 5.69995 5.56261 5.56066C5.7019 5.42137 5.81239 5.25601 5.88777 5.07403C5.96315 4.89204 6.00195 4.69698 6.00195 4.5C6.00195 4.30302 5.96315 4.10796 5.88777 3.92597C5.81239 3.74399 5.7019 3.57863 5.56261 3.43934C5.42333 3.30005 5.25797 3.18956 5.07598 3.11418C4.89399 3.0388 4.69894 3 4.50195 3C4.10413 3 3.7226 3.15804 3.44129 3.43934C3.15999 3.72064 3.00195 4.10218 3.00195 4.5C3.00195 4.89782 3.15999 5.27936 3.44129 5.56066C3.7226 5.84196 4.10413 6 4.50195 6V6Z" fill="black"/>
</svg>
