<svg width="70" height="40" viewBox="0 0 70 40" fill="none" xmlns="http://www.w3.org/2000/svg">
<path fill-rule="evenodd" clip-rule="evenodd" d="M41 14H29C28.7348 14 28.4804 14.1054 28.2929 14.2929C28.1054 14.4804 28 14.7348 28 15V25C28 25.2652 28.1054 25.5196 28.2929 25.7071C28.4804 25.8946 28.7348 26 29 26H41C41.2652 26 41.5196 25.8946 41.7071 25.7071C41.8946 25.5196 42 25.2652 42 25V15C42 14.7348 41.8946 14.4804 41.7071 14.2929C41.5196 14.1054 41.2652 14 41 14V14ZM29 13C28.4696 13 27.9609 13.2107 27.5858 13.5858C27.2107 13.9609 27 14.4696 27 15V25C27 25.5304 27.2107 26.0391 27.5858 26.4142C27.9609 26.7893 28.4696 27 29 27H41C41.2626 27 41.5227 26.9483 41.7654 26.8478C42.008 26.7472 42.2285 26.5999 42.4142 26.4142C42.5999 26.2285 42.7472 26.008 42.8478 25.7654C42.9483 25.5227 43 25.2626 43 25V15C43 14.4696 42.7893 13.9609 42.4142 13.5858C42.0391 13.2107 41.5304 13 41 13H29V13Z" fill="black"/>
<path d="M37.646 19.646C37.7203 19.572 37.8159 19.5231 37.9195 19.5064C38.023 19.4897 38.1292 19.506 38.223 19.553L42 21.5V26H28V24L30.646 21.646C30.7277 21.5646 30.8351 21.5139 30.9499 21.5026C31.0648 21.4913 31.18 21.5201 31.276 21.584L33.936 23.357L37.646 19.647V19.646Z" fill="black"/>
<path fill-rule="evenodd" clip-rule="evenodd" d="M31.5 19C31.697 19 31.892 18.9612 32.074 18.8858C32.256 18.8104 32.4214 18.6999 32.5607 18.5607C32.6999 18.4214 32.8104 18.256 32.8858 18.074C32.9612 17.892 33 17.697 33 17.5C33 17.303 32.9612 17.108 32.8858 16.926C32.8104 16.744 32.6999 16.5786 32.5607 16.4393C32.4214 16.3001 32.256 16.1896 32.074 16.1142C31.892 16.0388 31.697 16 31.5 16C31.1022 16 30.7206 16.158 30.4393 16.4393C30.158 16.7206 30 17.1022 30 17.5C30 17.8978 30.158 18.2794 30.4393 18.5607C30.7206 18.842 31.1022 19 31.5 19V19Z" fill="black"/>
</svg>
