<svg width="928" height="523" viewBox="0 0 928 523" fill="none" xmlns="http://www.w3.org/2000/svg">
<path fill-rule="evenodd" clip-rule="evenodd" d="M543.543 185.975H384.457C380.941 185.975 377.569 187.372 375.083 189.858C372.597 192.344 371.2 195.716 371.2 199.232V331.804C371.2 335.32 372.597 338.692 375.083 341.178C377.569 343.664 380.941 345.061 384.457 345.061H543.543C547.059 345.061 550.431 343.664 552.917 341.178C555.403 338.692 556.8 335.32 556.8 331.804V199.232C556.8 195.716 555.403 192.344 552.917 189.858C550.431 187.372 547.059 185.975 543.543 185.975ZM384.457 172.718C377.425 172.718 370.681 175.511 365.709 180.484C360.736 185.456 357.943 192.2 357.943 199.232V331.804C357.943 338.836 360.736 345.58 365.709 350.552C370.681 355.524 377.425 358.318 384.457 358.318H543.543C547.025 358.318 550.473 357.632 553.689 356.3C556.906 354.967 559.829 353.014 562.291 350.552C564.753 348.09 566.706 345.167 568.039 341.95C569.371 338.733 570.057 335.285 570.057 331.804V199.232C570.057 192.2 567.264 185.456 562.291 180.484C557.319 175.511 550.575 172.718 543.543 172.718H384.457Z" fill="#3F3F3F"/>
<path d="M499.078 260.825C500.063 259.843 501.331 259.196 502.704 258.975C504.077 258.753 505.484 258.969 506.727 259.592L556.8 285.404V345.061H371.2V318.547L406.278 287.339C407.362 286.26 408.785 285.588 410.307 285.438C411.83 285.288 413.357 285.67 414.63 286.517L449.894 310.022L499.078 260.838V260.825Z" fill="#3F3F3F"/>
<path fill-rule="evenodd" clip-rule="evenodd" d="M417.6 252.261C420.211 252.261 422.797 251.746 425.21 250.747C427.623 249.748 429.815 248.283 431.661 246.436C433.508 244.59 434.973 242.398 435.972 239.985C436.971 237.572 437.486 234.986 437.486 232.375C437.486 229.764 436.971 227.178 435.972 224.765C434.973 222.352 433.508 220.16 431.661 218.314C429.815 216.467 427.623 215.002 425.21 214.003C422.797 213.004 420.211 212.489 417.6 212.489C412.326 212.489 407.268 214.584 403.539 218.314C399.809 222.043 397.714 227.101 397.714 232.375C397.714 237.649 399.809 242.707 403.539 246.436C407.268 250.166 412.326 252.261 417.6 252.261Z" fill="#3F3F3F"/>
</svg>
