<svg width="73" height="38" viewBox="0 0 73 38" fill="none" xmlns="http://www.w3.org/2000/svg">
<path d="M1.776 28V10.96H5.088V25.096H13.776V28H1.776ZM21.1939 28.24C19.8179 28.24 18.6339 27.944 17.6419 27.352C16.6659 26.744 15.9139 25.944 15.3859 24.952C14.8579 23.96 14.5939 22.888 14.5939 21.736C14.5939 20.568 14.8579 19.488 15.3859 18.496C15.9299 17.504 16.6899 16.712 17.6659 16.12C18.6579 15.512 19.8339 15.208 21.1939 15.208C22.5539 15.208 23.7219 15.512 24.6979 16.12C25.6899 16.712 26.4499 17.504 26.9779 18.496C27.5059 19.488 27.7699 20.568 27.7699 21.736C27.7699 22.888 27.5059 23.96 26.9779 24.952C26.4499 25.944 25.6899 26.744 24.6979 27.352C23.7219 27.944 22.5539 28.24 21.1939 28.24ZM17.9059 21.736C17.9059 22.472 18.0499 23.128 18.3379 23.704C18.6259 24.264 19.0179 24.704 19.5139 25.024C20.0099 25.344 20.5699 25.504 21.1939 25.504C21.8019 25.504 22.3539 25.344 22.8499 25.024C23.3459 24.688 23.7379 24.24 24.0259 23.68C24.3299 23.104 24.4819 22.448 24.4819 21.712C24.4819 20.992 24.3299 20.352 24.0259 19.792C23.7379 19.216 23.3459 18.768 22.8499 18.448C22.3539 18.112 21.8019 17.944 21.1939 17.944C20.5699 17.944 20.0099 18.112 19.5139 18.448C19.0179 18.768 18.6259 19.216 18.3379 19.792C18.0499 20.352 17.9059 21 17.9059 21.736ZM34.8606 28.072C33.7406 28.072 32.7566 27.784 31.9086 27.208C31.0606 26.632 30.3966 25.864 29.9166 24.904C29.4366 23.928 29.1966 22.864 29.1966 21.712C29.1966 20.496 29.4446 19.4 29.9406 18.424C30.4366 17.432 31.1246 16.648 32.0046 16.072C32.8846 15.496 33.9006 15.208 35.0526 15.208C36.0286 15.208 36.8846 15.432 37.6206 15.88C38.3566 16.312 38.9646 16.896 39.4446 17.632V15.424H42.2526V27.4C42.2526 28.648 41.9486 29.712 41.3406 30.592C40.7486 31.488 39.9246 32.168 38.8686 32.632C37.8126 33.112 36.6126 33.352 35.2686 33.352C33.8926 33.352 32.7326 33.12 31.7886 32.656C30.8606 32.208 30.0606 31.568 29.3886 30.736L31.1406 29.032C31.6206 29.624 32.2206 30.088 32.9406 30.424C33.6766 30.76 34.4526 30.928 35.2686 30.928C35.9406 30.928 36.5566 30.8 37.1166 30.544C37.6926 30.304 38.1566 29.92 38.5086 29.392C38.8606 28.88 39.0366 28.216 39.0366 27.4V25.816C38.6206 26.536 38.0286 27.096 37.2606 27.496C36.5086 27.88 35.7086 28.072 34.8606 28.072ZM35.9406 25.504C36.6446 25.504 37.2766 25.296 37.8366 24.88C38.4126 24.464 38.8126 23.968 39.0366 23.392V20.392C38.7486 19.656 38.2926 19.064 37.6686 18.616C37.0606 18.168 36.4206 17.944 35.7486 17.944C35.0926 17.944 34.5166 18.128 34.0206 18.496C33.5406 18.864 33.1646 19.344 32.8926 19.936C32.6206 20.512 32.4846 21.136 32.4846 21.808C32.4846 22.496 32.6366 23.12 32.9406 23.68C33.2446 24.24 33.6526 24.688 34.1646 25.024C34.6926 25.344 35.2846 25.504 35.9406 25.504Z" fill="black"/>
<g filter="url(#filter0_d)">
<path d="M44.5645 27.9047L40.822 11.2807L44.0531 10.5533L47.7957 27.1772L44.5645 27.9047ZM62.3623 23.8979L59.2248 24.6042L57.6751 17.7205C57.4537 16.7371 57.1203 16.0577 56.675 15.6824C56.2297 15.307 55.7027 15.1879 55.0939 15.3249C54.6725 15.4198 54.2678 15.6257 53.8799 15.9426C53.5077 16.256 53.1938 16.6465 52.9382 17.1141C52.6792 17.566 52.5278 18.0593 52.4842 18.5939L54.0971 25.7586L50.9597 26.4649L48.1976 14.196L51.0307 13.5582L51.542 15.8294C51.8224 14.9626 52.3427 14.214 53.1029 13.5837C53.8595 12.9378 54.7763 12.4935 55.8533 12.2511C56.6182 12.0789 57.2742 12.0788 57.8213 12.2508C58.365 12.4073 58.8222 12.6897 59.193 13.0983C59.5602 13.4912 59.8557 13.9659 60.0794 14.5224C60.3187 15.0753 60.5051 15.6484 60.6386 16.2415L62.3623 23.8979Z" fill="#FF0000"/>
</g>
<defs>
<filter id="filter0_d" x="30.822" y="0.553314" width="41.5403" height="37.3514" filterUnits="userSpaceOnUse" color-interpolation-filters="sRGB">
<feFlood flood-opacity="0" result="BackgroundImageFix"/>
<feColorMatrix in="SourceAlpha" type="matrix" values="0 0 0 0 0 0 0 0 0 0 0 0 0 0 0 0 0 0 127 0"/>
<feOffset/>
<feGaussianBlur stdDeviation="5"/>
<feColorMatrix type="matrix" values="0 0 0 0 1 0 0 0 0 0 0 0 0 0 0 0 0 0 0.36 0"/>
<feBlend mode="normal" in2="BackgroundImageFix" result="effect1_dropShadow"/>
<feBlend mode="normal" in="SourceGraphic" in2="effect1_dropShadow" result="shape"/>
</filter>
</defs>
</svg>
