<svg width="27" height="27" viewBox="0 0 27 27" fill="none" xmlns="http://www.w3.org/2000/svg">
<path fill-rule="evenodd" clip-rule="evenodd" d="M1.03846 4C0.763044 4 0.498908 4.10941 0.304158 4.30416C0.109409 4.49891 0 4.76304 0 5.03846C0 5.31388 0.109409 5.57802 0.304158 5.77276C0.498908 5.96751 0.763044 6.07692 1.03846 6.07692H25.9615C26.237 6.07692 26.5011 5.96751 26.6958 5.77276C26.8906 5.57802 27 5.31388 27 5.03846C27 4.76304 26.8906 4.49891 26.6958 4.30416C26.5011 4.10941 26.237 4 25.9615 4H1.03846ZM0 13.3462C0 13.0707 0.109409 12.8066 0.304158 12.6119C0.498908 12.4171 0.763044 12.3077 1.03846 12.3077H25.9615C26.237 12.3077 26.5011 12.4171 26.6958 12.6119C26.8906 12.8066 27 13.0707 27 13.3462C27 13.6216 26.8906 13.8857 26.6958 14.0805C26.5011 14.2752 26.237 14.3846 25.9615 14.3846H1.03846C0.763044 14.3846 0.498908 14.2752 0.304158 14.0805C0.109409 13.8857 0 13.6216 0 13.3462V13.3462ZM0 21.6538C0 21.3784 0.109409 21.1143 0.304158 20.9195C0.498908 20.7248 0.763044 20.6154 1.03846 20.6154H25.9615C26.237 20.6154 26.5011 20.7248 26.6958 20.9195C26.8906 21.1143 27 21.3784 27 21.6538C27 21.9293 26.8906 22.1934 26.6958 22.3882C26.5011 22.5829 26.237 22.6923 25.9615 22.6923H1.03846C0.763044 22.6923 0.498908 22.5829 0.304158 22.3882C0.109409 22.1934 0 21.9293 0 21.6538V21.6538Z" fill="black"/>
</svg>
